<?xml version="1.0" encoding="UTF-8" standalone="no"?>
<!DOCTYPE svg PUBLIC "-//W3C//DTD SVG 1.1//EN" "http://www.w3.org/Graphics/SVG/1.1/DTD/svg11.dtd">
<svg xmlns="http://www.w3.org/2000/svg" version="1.1" viewBox="0.00 0.00 450.00 450.00" width="450.00" height="450.00">
<g stroke-width="2.00" fill="none" stroke-linecap="butt">
<path stroke="#849af4" vector-effect="non-scaling-stroke" d="
  M 349.49 106.44
  L 249.29 106.38"
/>
<path stroke="#e6becc" vector-effect="non-scaling-stroke" d="
  M 278.52 125.00
  Q 277.23 122.68 274.23 123.78
  Q 272.76 124.33 271.74 124.93"
/>
<path stroke="#e6becc" vector-effect="non-scaling-stroke" d="
  M 262.45 125.25
  L 260.32 125.21"
/>
<path stroke="#b773ac" vector-effect="non-scaling-stroke" d="
  M 254.00 133.62
  Q 252.19 140.46 256.87 142.87
  C 258.42 143.67 260.86 143.82 262.22 142.74
  Q 264.43 140.98 265.79 140.54"
/>
<path stroke="#5f33b2" vector-effect="non-scaling-stroke" d="
  M 209.85 122.35
  Q 207.98 122.91 209.02 125.43
  Q 209.79 127.30 209.97 128.16
  Q 213.62 146.15 215.87 164.05"
/>
<path stroke="#9d88d4" vector-effect="non-scaling-stroke" d="
  M 220.26 192.91
  Q 219.84 193.02 219.86 193.25
  Q 221.92 210.07 222.80 227.04
  A 1.08 1.08 0.0 0 1 221.91 228.16
  Q 220.35 228.44 219.49 229.21"
/>
<path stroke="#2e1b6f" vector-effect="non-scaling-stroke" d="
  M 219.49 229.21
  Q 216.26 230.08 213.12 231.01
  C 206.78 232.88 199.89 232.94 193.24 233.06
  Q 192.75 233.07 192.35 233.34
  Q 191.77 233.71 191.14 233.37
  Q 190.66 233.11 190.12 233.11
  Q 174.14 233.19 158.80 229.12"
/>
<path stroke="#9d88d4" vector-effect="non-scaling-stroke" d="
  M 158.80 229.12
  L 155.10 228.16
  Q 153.86 227.83 153.92 226.56
  L 155.09 201.18"
/>
<path stroke="#5f33b2" vector-effect="non-scaling-stroke" d="
  M 155.54 194.36
  Q 175.49 191.45 182.53 190.59
  Q 188.52 189.87 192.70 187.86"
/>
<path stroke="#a65ea4" vector-effect="non-scaling-stroke" d="
  M 192.70 187.86
  C 198.40 188.66 204.05 189.90 209.86 188.77
  A 1.43 1.42 -9.7 0 0 211.00 187.17
  C 210.77 185.62 209.18 184.46 207.67 184.29
  C 204.66 183.96 200.60 183.68 198.29 181.49
  A 1.58 1.58 0.0 0 1 198.05 179.49
  L 199.81 176.75
  A 0.93 0.93 0.0 0 0 198.93 175.32
  L 191.06 176.19"
/>
<path stroke="#5f33b2" vector-effect="non-scaling-stroke" d="
  M 191.06 176.19
  Q 174.73 175.79 157.92 177.05
  A 0.85 0.85 0.0 0 1 157.01 176.26
  Q 156.89 174.49 157.06 172.51
  Q 159.01 148.95 158.82 127.43
  C 158.80 125.67 159.28 123.68 159.18 121.71"
/>
<path stroke="#7d849a" vector-effect="non-scaling-stroke" d="
  M 158.80 229.12
  Q 146.32 301.50 133.73 373.38
  Q 133.71 373.48 133.61 373.57
  Q 133.55 373.63 133.54 373.68"
/>
<path stroke="#7d849a" vector-effect="non-scaling-stroke" d="
  M 214.89 370.37
  L 219.49 229.21"
/>
<path stroke="#2e1b6f" vector-effect="non-scaling-stroke" d="
  M 191.28 118.81
  Q 190.20 119.82 188.56 119.60"
/>
<path stroke="#b773ac" vector-effect="non-scaling-stroke" d="
  M 191.06 176.19
  Q 192.05 177.81 192.92 179.14
  C 195.30 182.74 193.41 184.47 192.70 187.86"
/>
<path stroke="#865b69" vector-effect="non-scaling-stroke" d="
  M 191.23 117.20
  Q 186.51 117.60 182.43 115.26
  Q 181.98 115.00 182.23 115.45
  Q 184.09 118.84 188.56 119.60"
/>
<path stroke="#a65ea4" vector-effect="non-scaling-stroke" d="
  M 188.56 119.60
  Q 189.73 119.60 190.22 120.12
  A 0.78 0.77 44.2 0 1 190.24 121.17
  Q 184.93 127.32 178.46 122.30
  Q 177.46 121.52 176.28 118.82"
/>
<path stroke="#874125" vector-effect="non-scaling-stroke" d="
  M 214.27 386.33
  L 191.93 386.28"
/>
<path stroke="#7d849a" vector-effect="non-scaling-stroke" d="
  M 191.52 367.55
  Q 191.63 367.48 191.72 367.37
  Q 191.81 367.27 191.80 367.13
  L 191.52 297.71"
/>
<path stroke="#7d849a" vector-effect="non-scaling-stroke" d="
  M 191.48 269.25
  L 191.75 235.63
  Q 191.77 232.86 191.11 235.55
  L 183.98 264.52"
/>
<path stroke="#7d849a" vector-effect="non-scaling-stroke" d="
  M 174.80 303.41
  Q 174.66 303.47 174.55 303.53
  Q 174.39 303.61 174.35 303.79
  L 158.87 366.67"
/>
<path stroke="#874125" vector-effect="non-scaling-stroke" d="
  M 154.01 386.26
  L 131.56 386.25"
/>
<path stroke="#865b69" vector-effect="non-scaling-stroke" d="
  M 200.67 92.07
  Q 197.54 92.19 194.66 90.88
  A 0.99 0.99 0.0 0 0 193.51 91.13
  Q 189.45 95.79 183.65 91.90
  Q 182.87 91.38 182.64 92.29
  Q 181.93 95.07 180.14 97.44
  Q 179.81 97.89 179.29 97.69
  Q 175.85 96.39 173.53 98.85"
/>
<path stroke="#874125" vector-effect="non-scaling-stroke" d="
  M 235.23 402.88
  L 188.71 402.83"
/>
<path stroke="#93a3f7" vector-effect="non-scaling-stroke" d="
  M 269.4710 52.7905
  A 0.76 0.76 0.0 0 0 268.7137 52.0278
  L 258.4937 51.9922
  A 0.76 0.76 0.0 0 0 257.7311 52.7495
  L 257.7290 53.3495
  A 0.76 0.76 0.0 0 0 258.4863 54.1122
  L 268.7063 54.1478
  A 0.76 0.76 0.0 0 0 269.4689 53.3905
  L 269.4710 52.7905"
/>
<path stroke="#93a3f7" vector-effect="non-scaling-stroke" d="
  M 265.3903 57.3039
  A 0.87 0.87 0.0 0 0 264.5279 56.4264
  L 258.4881 56.3737
  A 0.87 0.87 0.0 0 0 257.6106 57.2361
  L 257.6097 57.3361
  A 0.87 0.87 0.0 0 0 258.4721 58.2136
  L 264.5119 58.2663
  A 0.87 0.87 0.0 0 0 265.3894 57.4039
  L 265.3903 57.3039"
/>
<path stroke="#93a3f7" vector-effect="non-scaling-stroke" d="
  M 341.2304 96.0704
  A 0.88 0.88 0.0 0 0 340.3520 95.1889
  L 330.1720 95.1711
  A 0.88 0.88 0.0 0 0 329.2905 96.0496
  L 329.2896 96.5696
  A 0.88 0.88 0.0 0 0 330.1680 97.4511
  L 340.3480 97.4689
  A 0.88 0.88 0.0 0 0 341.2295 96.5904
  L 341.2304 96.0704"
/>
<path stroke="#93a3f7" vector-effect="non-scaling-stroke" d="
  M 337.2206 100.4376
  A 0.92 0.92 0.0 0 0 336.3070 99.5112
  L 330.2472 99.4689
  A 0.92 0.92 0.0 0 0 329.3208 100.3824
  L 329.3194 100.5824
  A 0.92 0.92 0.0 0 0 330.2330 101.5088
  L 336.2928 101.5511
  A 0.92 0.92 0.0 0 0 337.2192 100.6376
  L 337.2206 100.4376"
/>
<path stroke="#865b69" vector-effect="non-scaling-stroke" d="
  M 177.70 99.17
  Q 176.80 98.97 175.86 99.17
  Q 175.50 99.25 175.26 99.53
  Q 174.51 100.40 174.84 101.47
  Q 174.89 101.65 175.07 101.71
  Q 175.47 101.85 175.58 101.43
  Q 175.92 100.02 177.71 99.56
  Q 178.54 99.35 177.70 99.17"
/>
<path stroke="#e6becc" vector-effect="non-scaling-stroke" d="
  M 279.8302 112.5794
  A 0.99 0.99 0.0 0 0 278.8420 111.5876
  L 258.6220 111.5524
  A 0.99 0.99 0.0 0 0 257.6303 112.5406
  L 257.6298 112.8206
  A 0.99 0.99 0.0 0 0 258.6180 113.8124
  L 278.8380 113.8476
  A 0.99 0.99 0.0 0 0 279.8297 112.8594
  L 279.8302 112.5794"
/>
<path stroke="#dde8fd" vector-effect="non-scaling-stroke" d="
  M 289.9099 118.8416
  A 1.20 1.20 0.0 0 0 288.7078 117.6437
  L 258.6079 117.6963
  A 1.20 1.20 0.0 0 0 257.4100 118.8984
  L 257.4101 118.9584
  A 1.20 1.20 0.0 0 0 258.6122 120.1563
  L 288.7121 120.1037
  A 1.20 1.20 0.0 0 0 289.9100 118.9016
  L 289.9099 118.8416"
/>
</g>
<path fill="#3a55ee" d="
  M 349.49 106.44
  L 249.29 106.38
  L 249.29 46.54
  Q 249.29 44.02 251.81 44.02
  L 347.25 44.01
  A 2.23 2.23 0.0 0 1 349.48 46.24
  L 349.49 106.44
  Z
  M 269.4710 52.7905
  A 0.76 0.76 0.0 0 0 268.7137 52.0278
  L 258.4937 51.9922
  A 0.76 0.76 0.0 0 0 257.7311 52.7495
  L 257.7290 53.3495
  A 0.76 0.76 0.0 0 0 258.4863 54.1122
  L 268.7063 54.1478
  A 0.76 0.76 0.0 0 0 269.4689 53.3905
  L 269.4710 52.7905
  Z
  M 265.3903 57.3039
  A 0.87 0.87 0.0 0 0 264.5279 56.4264
  L 258.4881 56.3737
  A 0.87 0.87 0.0 0 0 257.6106 57.2361
  L 257.6097 57.3361
  A 0.87 0.87 0.0 0 0 258.4721 58.2136
  L 264.5119 58.2663
  A 0.87 0.87 0.0 0 0 265.3894 57.4039
  L 265.3903 57.3039
  Z
  M 341.2304 96.0704
  A 0.88 0.88 0.0 0 0 340.3520 95.1889
  L 330.1720 95.1711
  A 0.88 0.88 0.0 0 0 329.2905 96.0496
  L 329.2896 96.5696
  A 0.88 0.88 0.0 0 0 330.1680 97.4511
  L 340.3480 97.4689
  A 0.88 0.88 0.0 0 0 341.2295 96.5904
  L 341.2304 96.0704
  Z
  M 337.2206 100.4376
  A 0.92 0.92 0.0 0 0 336.3070 99.5112
  L 330.2472 99.4689
  A 0.92 0.92 0.0 0 0 329.3208 100.3824
  L 329.3194 100.5824
  A 0.92 0.92 0.0 0 0 330.2330 101.5088
  L 336.2928 101.5511
  A 0.92 0.92 0.0 0 0 337.2192 100.6376
  L 337.2206 100.4376
  Z"
/>
<rect fill="#ecf1ff" x="-5.87" y="-1.06" transform="translate(263.60,53.07) rotate(0.2)" width="11.74" height="2.12" rx="0.76"/>
<rect fill="#ecf1ff" x="-3.89" y="-0.92" transform="translate(261.50,57.32) rotate(0.5)" width="7.78" height="1.84" rx="0.87"/>
<path fill="#0e1734" d="
  M 200.67 92.07
  Q 197.54 92.19 194.66 90.88
  A 0.99 0.99 0.0 0 0 193.51 91.13
  Q 189.45 95.79 183.65 91.90
  Q 182.87 91.38 182.64 92.29
  Q 181.93 95.07 180.14 97.44
  Q 179.81 97.89 179.29 97.69
  Q 175.85 96.39 173.53 98.85
  C 171.49 93.70 170.46 85.63 175.65 82.34
  Q 178.29 80.66 180.70 82.59
  Q 181.20 82.99 181.66 82.55
  C 184.94 79.37 190.22 77.03 192.89 82.54
  Q 193.14 83.05 193.61 82.73
  Q 198.16 79.69 202.78 80.60
  Q 207.00 81.43 206.09 85.75
  Q 205.07 90.56 200.67 92.07
  Z"
/>
<rect fill="#0e1734" x="-15.30" y="-6.73" transform="translate(140.41,89.42) rotate(-0.1)" width="30.60" height="13.46" rx="6.43"/>
<path fill="#fd9e9e" d="
  M 200.67 92.07
  Q 200.62 97.15 200.62 102.23
  Q 200.62 108.93 199.47 111.35
  Q 197.29 115.99 191.23 117.20
  Q 186.51 117.60 182.43 115.26
  Q 181.98 115.00 182.23 115.45
  Q 184.09 118.84 188.56 119.60
  Q 189.73 119.60 190.22 120.12
  A 0.78 0.77 44.2 0 1 190.24 121.17
  Q 184.93 127.32 178.46 122.30
  Q 177.46 121.52 176.28 118.82
  L 178.01 105.89
  Q 178.10 105.28 177.48 105.27
  L 176.58 105.27
  Q 176.07 105.26 175.61 105.04
  Q 171.54 103.07 173.53 98.85
  Q 175.85 96.39 179.29 97.69
  Q 179.81 97.89 180.14 97.44
  Q 181.93 95.07 182.64 92.29
  Q 182.87 91.38 183.65 91.90
  Q 189.45 95.79 193.51 91.13
  A 0.99 0.99 0.0 0 1 194.66 90.88
  Q 197.54 92.19 200.67 92.07
  Z
  M 177.70 99.17
  Q 176.80 98.97 175.86 99.17
  Q 175.50 99.25 175.26 99.53
  Q 174.51 100.40 174.84 101.47
  Q 174.89 101.65 175.07 101.71
  Q 175.47 101.85 175.58 101.43
  Q 175.92 100.02 177.71 99.56
  Q 178.54 99.35 177.70 99.17
  Z"
/>
<rect fill="#ecf1ff" x="-5.97" y="-1.14" transform="translate(335.26,96.32) rotate(0.1)" width="11.94" height="2.28" rx="0.88"/>
<path fill="#0e1734" d="
  M 177.71 99.56
  Q 175.92 100.02 175.58 101.43
  Q 175.47 101.85 175.07 101.71
  Q 174.89 101.65 174.84 101.47
  Q 174.51 100.40 175.26 99.53
  Q 175.50 99.25 175.86 99.17
  Q 176.80 98.97 177.70 99.17
  Q 178.54 99.35 177.71 99.56
  Z"
/>
<rect fill="#ecf1ff" x="-3.95" y="-1.02" transform="translate(333.27,100.51) rotate(0.4)" width="7.90" height="2.04" rx="0.92"/>
<path fill="#cedefa" d="
  M 249.29 106.38
  L 349.49 106.44
  L 349.48 122.81
  A 2.18 2.18 0.0 0 1 347.30 124.99
  L 278.52 125.00
  Q 277.23 122.68 274.23 123.78
  Q 272.76 124.33 271.74 124.93
  L 262.45 125.25
  L 260.32 125.21
  L 251.38 124.97
  A 2.12 2.12 0.0 0 1 249.32 122.86
  L 249.29 106.38
  Z
  M 279.8302 112.5794
  A 0.99 0.99 0.0 0 0 278.8420 111.5876
  L 258.6220 111.5524
  A 0.99 0.99 0.0 0 0 257.6303 112.5406
  L 257.6298 112.8206
  A 0.99 0.99 0.0 0 0 258.6180 113.8124
  L 278.8380 113.8476
  A 0.99 0.99 0.0 0 0 279.8297 112.8594
  L 279.8302 112.5794
  Z
  M 289.9099 118.8416
  A 1.20 1.20 0.0 0 0 288.7078 117.6437
  L 258.6079 117.6963
  A 1.20 1.20 0.0 0 0 257.4100 118.8984
  L 257.4101 118.9584
  A 1.20 1.20 0.0 0 0 258.6122 120.1563
  L 288.7121 120.1037
  A 1.20 1.20 0.0 0 0 289.9100 118.9016
  L 289.9099 118.8416
  Z"
/>
<rect fill="#fd9e9e" x="-11.10" y="-1.13" transform="translate(268.73,112.70) rotate(0.1)" width="22.20" height="2.26" rx="0.99"/>
<path fill="#0e1734" d="
  M 191.23 117.20
  Q 190.98 118.10 191.28 118.81
  Q 190.20 119.82 188.56 119.60
  Q 184.09 118.84 182.23 115.45
  Q 181.98 115.00 182.43 115.26
  Q 186.51 117.60 191.23 117.20
  Z"
/>
<rect fill="#ecf1ff" x="-16.25" y="-1.23" transform="translate(273.66,118.90) rotate(-0.1)" width="32.50" height="2.46" rx="1.20"/>
<path fill="#4e1ea9" d="
  M 176.28 118.82
  Q 177.46 121.52 178.46 122.30
  Q 184.93 127.32 190.24 121.17
  A 0.78 0.77 44.2 0 0 190.22 120.12
  Q 189.73 119.60 188.56 119.60
  Q 190.20 119.82 191.28 118.81
  Q 198.00 119.73 204.75 120.36
  Q 207.22 120.59 209.85 122.35
  Q 207.98 122.91 209.02 125.43
  Q 209.79 127.30 209.97 128.16
  Q 213.62 146.15 215.87 164.05
  Q 218.06 178.16 219.69 192.01
  Q 219.76 192.54 220.26 192.91
  Q 219.84 193.02 219.86 193.25
  Q 221.92 210.07 222.80 227.04
  A 1.08 1.08 0.0 0 1 221.91 228.16
  Q 220.35 228.44 219.49 229.21
  Q 216.26 230.08 213.12 231.01
  C 206.78 232.88 199.89 232.94 193.24 233.06
  Q 192.75 233.07 192.35 233.34
  Q 191.77 233.71 191.14 233.37
  Q 190.66 233.11 190.12 233.11
  Q 174.14 233.19 158.80 229.12
  L 155.10 228.16
  Q 153.86 227.83 153.92 226.56
  L 155.09 201.18
  L 155.54 194.36
  Q 175.49 191.45 182.53 190.59
  Q 188.52 189.87 192.70 187.86
  C 198.40 188.66 204.05 189.90 209.86 188.77
  A 1.43 1.42 -9.7 0 0 211.00 187.17
  C 210.77 185.62 209.18 184.46 207.67 184.29
  C 204.66 183.96 200.60 183.68 198.29 181.49
  A 1.58 1.58 0.0 0 1 198.05 179.49
  L 199.81 176.75
  A 0.93 0.93 0.0 0 0 198.93 175.32
  L 191.06 176.19
  Q 174.73 175.79 157.92 177.05
  A 0.85 0.85 0.0 0 1 157.01 176.26
  Q 156.89 174.49 157.06 172.51
  Q 159.01 148.95 158.82 127.43
  C 158.80 125.67 159.28 123.68 159.18 121.71
  Q 167.55 119.44 176.28 118.82
  Z"
/>
<path fill="#7048ba" d="
  M 159.18 121.71
  C 159.28 123.68 158.80 125.67 158.82 127.43
  Q 159.01 148.95 157.06 172.51
  Q 156.89 174.49 157.01 176.26
  A 0.85 0.85 0.0 0 0 157.92 177.05
  Q 174.73 175.79 191.06 176.19
  Q 192.05 177.81 192.92 179.14
  C 195.30 182.74 193.41 184.47 192.70 187.86
  Q 188.52 189.87 182.53 190.59
  Q 175.49 191.45 155.54 194.36
  Q 153.47 194.67 151.43 194.93
  C 146.91 195.50 143.24 193.88 141.34 189.51
  Q 140.47 187.52 140.75 185.37
  Q 144.13 159.10 147.33 134.28
  C 148.18 127.69 152.57 123.06 159.18 121.71
  Z"
/>
<path fill="#7048ba" d="
  M 209.85 122.35
  Q 212.49 124.05 213.73 125.77
  Q 224.81 141.19 235.77 156.61
  A 0.28 0.28 0.0 0 0 236.22 156.62
  L 254.00 133.62
  Q 252.19 140.46 256.87 142.87
  C 258.42 143.67 260.86 143.82 262.22 142.74
  Q 264.43 140.98 265.79 140.54
  Q 256.04 156.87 245.94 172.76
  Q 243.09 177.26 241.16 178.46
  Q 237.17 180.94 232.72 177.31
  Q 224.61 170.71 215.87 164.05
  Q 213.62 146.15 209.97 128.16
  Q 209.79 127.30 209.02 125.43
  Q 207.98 122.91 209.85 122.35
  Z"
/>
<path fill="#fd9e9e" d="
  M 278.52 125.00
  Q 274.07 131.40 266.44 137.45
  Q 265.07 138.53 265.79 140.54
  Q 264.43 140.98 262.22 142.74
  C 260.86 143.82 258.42 143.67 256.87 142.87
  Q 252.19 140.46 254.00 133.62
  Q 256.22 132.49 256.68 131.45
  Q 258.14 128.15 260.32 125.21
  L 262.45 125.25
  L 263.16 127.97
  A 1.93 1.92 76.5 0 0 265.43 129.37
  Q 269.42 128.51 271.74 124.93
  Q 272.76 124.33 274.23 123.78
  Q 277.23 122.68 278.52 125.00
  Z"
/>
<path fill="#ecf1ff" d="
  M 322.22 174.29
  L 326.78 172.70
  A 0.65 0.65 0.0 0 1 327.55 172.99
  L 330.58 178.13
  A 0.65 0.65 0.0 0 1 330.45 178.95
  L 326.79 182.24
  A 0.65 0.65 0.0 0 0 326.59 182.90
  L 328.20 188.85
  A 0.65 0.65 0.0 0 0 328.69 189.32
  L 333.49 190.33
  A 0.65 0.65 0.0 0 1 334.01 190.97
  L 334.01 196.93
  A 0.65 0.65 0.0 0 1 333.49 197.56
  L 328.70 198.52
  A 0.65 0.65 0.0 0 0 328.20 198.99
  L 326.58 205.03
  A 0.65 0.65 0.0 0 0 326.79 205.69
  L 330.47 208.88
  A 0.65 0.65 0.0 0 1 330.60 209.71
  L 327.52 214.92
  A 0.65 0.65 0.0 0 1 326.74 215.20
  L 322.23 213.58
  A 0.65 0.65 0.0 0 0 321.55 213.73
  L 317.14 218.17
  A 0.65 0.65 0.0 0 0 316.98 218.84
  L 318.56 223.43
  A 0.65 0.65 0.0 0 1 318.27 224.20
  L 313.05 227.23
  A 0.65 0.65 0.0 0 1 312.24 227.09
  L 309.05 223.43
  A 0.65 0.65 0.0 0 0 308.39 223.22
  L 302.34 224.84
  A 0.65 0.65 0.0 0 0 301.86 225.35
  L 300.98 230.09
  A 0.65 0.65 0.0 0 1 300.34 230.62
  L 294.31 230.62
  A 0.65 0.65 0.0 0 1 293.68 230.10
  L 292.74 225.35
  A 0.65 0.65 0.0 0 0 292.27 224.85
  L 286.26 223.21
  A 0.65 0.65 0.0 0 0 285.60 223.40
  L 282.34 227.08
  A 0.65 0.65 0.0 0 1 281.52 227.21
  L 276.38 224.18
  A 0.65 0.65 0.0 0 1 276.10 223.41
  L 277.63 218.87
  A 0.65 0.65 0.0 0 0 277.48 218.20
  L 273.07 213.75
  A 0.65 0.65 0.0 0 0 272.39 213.60
  L 267.84 215.18
  A 0.65 0.65 0.0 0 1 267.06 214.90
  L 264.05 209.69
  A 0.65 0.65 0.0 0 1 264.18 208.88
  L 267.83 205.62
  A 0.65 0.65 0.0 0 0 268.03 204.96
  L 266.42 199.00
  A 0.65 0.65 0.0 0 0 265.93 198.53
  L 261.16 197.57
  A 0.65 0.65 0.0 0 1 260.64 196.93
  L 260.62 190.94
  A 0.65 0.65 0.0 0 1 261.14 190.31
  L 265.91 189.36
  A 0.65 0.65 0.0 0 0 266.41 188.89
  L 268.03 182.90
  A 0.65 0.65 0.0 0 0 267.84 182.24
  L 264.17 178.99
  A 0.65 0.65 0.0 0 1 264.04 178.18
  L 267.06 172.97
  A 0.65 0.65 0.0 0 1 267.84 172.69
  L 272.39 174.28
  A 0.65 0.65 0.0 0 0 273.07 174.12
  L 277.50 169.66
  A 0.65 0.65 0.0 0 0 277.66 168.99
  L 276.09 164.45
  A 0.65 0.65 0.0 0 1 276.38 163.67
  L 281.57 160.66
  A 0.65 0.65 0.0 0 1 282.39 160.80
  L 285.56 164.48
  A 0.65 0.65 0.0 0 0 286.23 164.68
  L 292.26 163.03
  A 0.65 0.65 0.0 0 0 292.73 162.53
  L 293.69 157.77
  A 0.65 0.65 0.0 0 1 294.33 157.25
  L 300.34 157.27
  A 0.65 0.65 0.0 0 1 300.98 157.80
  L 301.87 162.52
  A 0.65 0.65 0.0 0 0 302.34 163.03
  L 308.35 164.67
  A 0.65 0.65 0.0 0 0 309.01 164.48
  L 312.27 160.78
  A 0.65 0.65 0.0 0 1 313.08 160.65
  L 318.25 163.69
  A 0.65 0.65 0.0 0 1 318.54 164.46
  L 316.98 169.03
  A 0.65 0.65 0.0 0 0 317.13 169.70
  L 321.54 174.13
  A 0.65 0.65 0.0 0 0 322.22 174.29
  Z
  M 304.68 193.93
  A 7.36 7.36 0.0 0 0 297.32 186.57
  A 7.36 7.36 0.0 0 0 289.96 193.93
  A 7.36 7.36 0.0 0 0 297.32 201.29
  A 7.36 7.36 0.0 0 0 304.68 193.93
  Z"
/>
<path fill="#fd9e9e" d="
  M 192.70 187.86
  C 193.41 184.47 195.30 182.74 192.92 179.14
  Q 192.05 177.81 191.06 176.19
  L 198.93 175.32
  A 0.93 0.93 0.0 0 1 199.81 176.75
  L 198.05 179.49
  A 1.58 1.58 0.0 0 0 198.29 181.49
  C 200.60 183.68 204.66 183.96 207.67 184.29
  C 209.18 184.46 210.77 185.62 211.00 187.17
  A 1.43 1.42 -9.7 0 1 209.86 188.77
  C 204.05 189.90 198.40 188.66 192.70 187.86
  Z"
/>
<path fill="#ecf1ff" d="
  M 155.09 201.18
  L 153.92 226.56
  Q 153.86 227.83 155.10 228.16
  L 158.80 229.12
  Q 146.32 301.50 133.73 373.38
  Q 133.71 373.48 133.61 373.57
  Q 133.55 373.63 133.54 373.68
  L 119.59 365.44
  Q 119.04 365.11 119.24 364.50
  L 123.91 350.53
  Q 124.10 349.96 123.63 349.58
  Q 116.68 344.03 111.21 337.16
  Q 110.86 336.73 110.34 336.90
  L 96.18 341.63
  A 0.60 0.59 -25.9 0 1 95.50 341.40
  Q 90.03 333.56 86.27 325.42
  A 0.66 0.65 -33.2 0 1 86.43 324.67
  L 97.52 314.85
  Q 97.98 314.43 97.76 313.85
  Q 94.51 305.54 93.24 297.00
  Q 93.15 296.36 92.51 296.23
  L 78.05 293.27
  Q 77.55 293.17 77.51 292.66
  Q 76.73 283.21 77.53 274.19
  Q 77.56 273.80 77.94 273.72
  L 92.50 270.73
  Q 93.12 270.61 93.22 269.98
  Q 94.69 260.94 97.78 252.99
  A 0.73 0.71 31.7 0 0 97.58 252.18
  L 86.41 242.27
  A 0.60 0.59 33.6 0 1 86.26 241.57
  Q 90.27 232.96 95.59 225.44
  Q 95.76 225.19 96.05 225.29
  L 110.29 230.05
  Q 110.85 230.24 111.23 229.78
  Q 116.67 222.95 123.56 217.43
  A 0.99 0.98 61.2 0 0 123.87 216.35
  L 119.16 202.24
  A 0.48 0.47 63.9 0 1 119.34 201.70
  Q 126.70 196.49 135.29 192.44
  Q 135.80 192.20 136.17 192.62
  L 145.96 203.61
  Q 146.30 203.99 146.78 203.84
  L 155.09 201.18
  Z"
/>
<path fill="#ecf1ff" d="
  M 220.26 192.91
  Q 228.14 196.54 235.19 201.67
  Q 235.61 201.97 235.45 202.45
  L 230.78 216.45
  Q 230.60 216.97 231.04 217.32
  Q 237.78 222.82 243.53 229.83
  Q 243.86 230.23 244.35 230.06
  L 258.37 225.37
  Q 258.92 225.19 259.25 225.66
  Q 264.49 233.12 268.36 241.41
  Q 268.61 241.95 268.16 242.35
  L 257.15 252.15
  Q 256.74 252.52 256.93 253.04
  Q 260.25 261.89 261.48 270.11
  A 0.73 0.72 -88.9 0 0 262.05 270.71
  L 276.56 273.68
  Q 277.18 273.80 277.23 274.44
  Q 277.95 284.01 277.20 292.69
  Q 277.16 293.17 276.69 293.26
  L 262.19 296.22
  A 0.93 0.92 88.7 0 0 261.47 296.98
  Q 260.06 305.85 256.93 313.84
  Q 256.70 314.41 257.16 314.82
  L 268.39 324.81
  A 0.40 0.39 33.5 0 1 268.49 325.28
  Q 264.46 333.92 259.23 341.33
  Q 258.92 341.76 258.42 341.59
  L 244.37 336.90
  Q 243.87 336.74 243.53 337.15
  Q 237.80 344.13 231.02 349.66
  Q 230.60 350.00 230.77 350.51
  L 235.46 364.55
  Q 235.63 365.06 235.19 365.37
  Q 227.67 370.66 219.37 374.51
  Q 218.89 374.74 218.53 374.35
  L 214.89 370.37
  L 219.49 229.21
  Q 220.35 228.44 221.91 228.16
  A 1.08 1.08 0.0 0 0 222.80 227.04
  Q 221.92 210.07 219.86 193.25
  Q 219.84 193.02 220.26 192.91
  Z"
/>
<path fill="#0e1734" d="
  M 158.80 229.12
  Q 174.14 233.19 190.12 233.11
  Q 190.66 233.11 191.14 233.37
  Q 191.77 233.71 192.35 233.34
  Q 192.75 233.07 193.24 233.06
  C 199.89 232.94 206.78 232.88 213.12 231.01
  Q 216.26 230.08 219.49 229.21
  L 214.89 370.37
  L 214.27 386.33
  L 191.93 386.28
  Q 191.61 377.33 191.91 368.50
  Q 191.92 367.95 191.52 367.55
  Q 191.63 367.48 191.72 367.37
  Q 191.81 367.27 191.80 367.13
  L 191.52 297.71
  L 191.48 269.25
  L 191.75 235.63
  Q 191.77 232.86 191.11 235.55
  L 183.98 264.52
  Q 179.27 283.67 174.56 302.83
  Q 174.51 303.04 174.57 303.16
  Q 174.64 303.30 174.80 303.41
  Q 174.66 303.47 174.55 303.53
  Q 174.39 303.61 174.35 303.79
  L 158.87 366.67
  L 154.01 386.26
  L 131.56 386.25
  L 133.54 373.68
  Q 133.55 373.63 133.61 373.57
  Q 133.71 373.48 133.73 373.38
  Q 146.32 301.50 158.80 229.12
  Z"
/>
<path fill="#ecf1ff" d="
  M 191.48 269.25
  Q 188.35 266.13 183.98 264.52
  L 191.11 235.55
  Q 191.77 232.86 191.75 235.63
  L 191.48 269.25
  Z"
/>
<path fill="#ecf1ff" d="
  M 191.52 297.71
  L 191.80 367.13
  Q 191.81 367.27 191.72 367.37
  Q 191.63 367.48 191.52 367.55
  Q 190.32 367.17 190.09 368.31
  Q 188.57 375.71 187.13 382.82
  Q 187.04 383.27 186.58 383.31
  Q 177.46 384.10 168.20 383.34
  Q 167.66 383.29 167.56 382.76
  L 164.59 368.28
  Q 164.49 367.79 164.01 367.69
  L 158.87 366.67
  L 174.35 303.79
  Q 174.39 303.61 174.55 303.53
  Q 174.66 303.47 174.80 303.41
  Q 184.56 304.38 191.52 297.71
  Z"
/>
<path fill="#ff6a16" d="
  M 131.56 386.25
  L 154.01 386.26
  Q 156.88 390.56 160.83 394.04
  Q 162.86 395.83 163.10 397.40
  C 163.51 400.00 161.42 402.58 158.66 402.58
  Q 144.24 402.60 131.53 402.58
  C 127.59 402.58 124.70 398.55 125.61 394.77
  Q 125.94 393.39 128.17 390.75
  Q 129.99 388.61 131.56 386.25
  Z"
/>
<path fill="#ff6a16" d="
  M 191.93 386.28
  L 214.27 386.33
  C 219.10 388.02 235.78 394.95 236.80 399.39
  Q 237.03 400.40 236.50 401.29
  Q 236.04 402.06 235.23 402.88
  L 188.71 402.83
  Q 185.41 400.56 185.30 397.78
  Q 185.23 396.05 187.38 392.84
  Q 189.63 389.48 191.93 386.28
  Z"
/>
<path fill="#0e1734" d="
  M 188.71 402.83
  L 235.23 402.88
  L 418.07 402.91
  Q 418.44 402.91 418.44 403.28
  L 418.45 405.65
  Q 418.45 406.25 417.85 406.25
  L 70.25 406.26
  Q 69.73 406.26 69.73 405.75
  L 69.74 403.27
  Q 69.74 402.91 70.10 402.91
  L 188.71 402.83
  Z"
/>
</svg>
