<?xml version="1.0" encoding="UTF-8" standalone="no"?>
<!DOCTYPE svg PUBLIC "-//W3C//DTD SVG 1.1//EN" "http://www.w3.org/Graphics/SVG/1.1/DTD/svg11.dtd">
<svg xmlns="http://www.w3.org/2000/svg" version="1.1" viewBox="0.00 0.00 150.00 150.00" width="150.00" height="150.00">
<g stroke-width="2.00" fill="none" stroke-linecap="butt">
<path stroke="#909da2" vector-effect="non-scaling-stroke" d="
  M 84.44 26.43
  A 0.67 0.67 0.0 0 0 83.82 25.53
  L 80.14 25.54
  A 0.67 0.67 0.0 0 0 79.52 25.97
  L 64.62 65.80
  A 0.67 0.67 0.0 0 0 65.26 66.70
  L 69.12 66.60
  A 0.67 0.67 0.0 0 0 69.73 66.16
  L 84.44 26.43"
/>
<path stroke="#909da2" vector-effect="non-scaling-stroke" d="
  M 43.79 47.55
  A 0.17 0.17 0.0 0 1 43.79 47.24
  L 57.67 40.70
  Q 58.65 40.24 58.65 39.15
  L 58.66 36.77
  Q 58.66 35.62 57.63 36.12
  L 40.06 44.77
  A 1.05 1.04 77.5 0 0 39.48 45.69
  L 39.42 49.14
  Q 39.41 49.79 40.00 50.08
  L 57.83 58.86
  A 0.60 0.60 0.0 0 0 58.70 58.30
  L 58.62 55.62
  Q 58.59 54.57 57.65 54.13
  L 43.79 47.55"
/>
<path stroke="#909da2" vector-effect="non-scaling-stroke" d="
  M 105.01 47.20
  A 0.35 0.35 0.0 0 1 105.01 47.84
  L 90.58 54.65
  A 0.35 0.35 0.0 0 0 90.38 54.96
  L 90.39 58.79
  A 0.35 0.35 0.0 0 0 90.89 59.10
  L 109.32 50.03
  A 0.35 0.35 0.0 0 0 109.51 49.73
  L 109.59 45.24
  A 0.35 0.35 0.0 0 0 109.39 44.92
  L 90.95 35.87
  A 0.35 0.35 0.0 0 0 90.45 36.18
  L 90.43 40.07
  A 0.35 0.35 0.0 0 0 90.63 40.39
  L 105.01 47.20"
/>
<path stroke="#909da2" vector-effect="non-scaling-stroke" d="
  M 65.94 91.01
  Q 65.81 99.11 65.74 107.90
  C 65.70 112.14 63.60 114.45 58.86 113.50
  Q 55.52 112.83 55.23 108.61
  Q 55.22 108.39 55.00 108.39
  L 50.84 108.37
  Q 50.62 108.37 50.62 108.60
  C 50.65 113.80 54.04 117.50 59.16 117.93
  Q 62.41 118.21 64.19 117.52
  Q 70.58 115.05 70.61 108.75
  Q 70.66 97.41 70.57 86.59
  A 0.51 0.51 0.0 0 0 70.06 86.09
  L 59.08 86.07
  Q 58.47 86.07 58.48 86.67
  L 58.48 89.75
  Q 58.48 90.27 59.00 90.27
  L 65.21 90.26
  A 0.73 0.72 -89.6 0 1 65.94 91.01"
/>
<path stroke="#909da2" vector-effect="non-scaling-stroke" d="
  M 81.06 91.82
  Q 83.17 97.17 84.71 102.98
  Q 84.90 103.69 85.63 103.83
  Q 87.22 104.14 88.90 103.90
  A 1.32 1.32 0.0 0 0 89.99 102.94
  Q 91.59 97.05 93.49 90.87
  Q 94.13 88.80 93.93 90.96
  Q 92.77 103.51 93.03 116.95
  Q 93.04 117.68 93.77 117.66
  L 96.68 117.62
  Q 97.46 117.60 97.46 116.82
  L 97.46 86.74
  A 0.72 0.71 89.6 0 0 96.74 86.02
  L 92.29 86.04
  A 0.97 0.97 0.0 0 0 91.37 86.74
  L 87.76 99.22
  Q 87.37 100.58 86.97 99.23
  L 83.28 86.66
  Q 83.11 86.08 82.50 86.07
  L 78.02 85.99
  Q 77.27 85.98 77.26 86.73
  L 77.20 116.82
  Q 77.19 117.69 78.07 117.67
  L 80.76 117.62
  Q 81.59 117.60 81.60 116.76
  Q 81.67 106.96 81.38 97.34
  C 81.32 95.46 80.72 93.78 80.74 91.88
  Q 80.75 91.03 81.06 91.82"
/>
</g>
<path fill="#2b454e" d="
  M 26.10 0.00
  L 124.23 0.00
  Q 135.33 0.71 142.56 7.95
  Q 148.98 14.38 150.00 24.13
  L 150.00 126.05
  Q 149.32 133.78 144.88 139.64
  Q 138.08 148.61 126.63 150.00
  L 23.39 150.00
  Q 5.91 147.15 1.00 130.55
  C 0.48 128.80 0.43 126.80 0.00 124.89
  L 0.00 25.47
  Q 0.59 19.54 2.17 16.19
  Q 9.22 1.26 26.10 0.00
  Z
  M 84.44 26.43
  A 0.67 0.67 0.0 0 0 83.82 25.53
  L 80.14 25.54
  A 0.67 0.67 0.0 0 0 79.52 25.97
  L 64.62 65.80
  A 0.67 0.67 0.0 0 0 65.26 66.70
  L 69.12 66.60
  A 0.67 0.67 0.0 0 0 69.73 66.16
  L 84.44 26.43
  Z
  M 43.79 47.55
  A 0.17 0.17 0.0 0 1 43.79 47.24
  L 57.67 40.70
  Q 58.65 40.24 58.65 39.15
  L 58.66 36.77
  Q 58.66 35.62 57.63 36.12
  L 40.06 44.77
  A 1.05 1.04 77.5 0 0 39.48 45.69
  L 39.42 49.14
  Q 39.41 49.79 40.00 50.08
  L 57.83 58.86
  A 0.60 0.60 0.0 0 0 58.70 58.30
  L 58.62 55.62
  Q 58.59 54.57 57.65 54.13
  L 43.79 47.55
  Z
  M 105.01 47.20
  A 0.35 0.35 0.0 0 1 105.01 47.84
  L 90.58 54.65
  A 0.35 0.35 0.0 0 0 90.38 54.96
  L 90.39 58.79
  A 0.35 0.35 0.0 0 0 90.89 59.10
  L 109.32 50.03
  A 0.35 0.35 0.0 0 0 109.51 49.73
  L 109.59 45.24
  A 0.35 0.35 0.0 0 0 109.39 44.92
  L 90.95 35.87
  A 0.35 0.35 0.0 0 0 90.45 36.18
  L 90.43 40.07
  A 0.35 0.35 0.0 0 0 90.63 40.39
  L 105.01 47.20
  Z
  M 65.94 91.01
  Q 65.81 99.11 65.74 107.90
  C 65.70 112.14 63.60 114.45 58.86 113.50
  Q 55.52 112.83 55.23 108.61
  Q 55.22 108.39 55.00 108.39
  L 50.84 108.37
  Q 50.62 108.37 50.62 108.60
  C 50.65 113.80 54.04 117.50 59.16 117.93
  Q 62.41 118.21 64.19 117.52
  Q 70.58 115.05 70.61 108.75
  Q 70.66 97.41 70.57 86.59
  A 0.51 0.51 0.0 0 0 70.06 86.09
  L 59.08 86.07
  Q 58.47 86.07 58.48 86.67
  L 58.48 89.75
  Q 58.48 90.27 59.00 90.27
  L 65.21 90.26
  A 0.73 0.72 -89.6 0 1 65.94 91.01
  Z
  M 81.06 91.82
  Q 83.17 97.17 84.71 102.98
  Q 84.90 103.69 85.63 103.83
  Q 87.22 104.14 88.90 103.90
  A 1.32 1.32 0.0 0 0 89.99 102.94
  Q 91.59 97.05 93.49 90.87
  Q 94.13 88.80 93.93 90.96
  Q 92.77 103.51 93.03 116.95
  Q 93.04 117.68 93.77 117.66
  L 96.68 117.62
  Q 97.46 117.60 97.46 116.82
  L 97.46 86.74
  A 0.72 0.71 89.6 0 0 96.74 86.02
  L 92.29 86.04
  A 0.97 0.97 0.0 0 0 91.37 86.74
  L 87.76 99.22
  Q 87.37 100.58 86.97 99.23
  L 83.28 86.66
  Q 83.11 86.08 82.50 86.07
  L 78.02 85.99
  Q 77.27 85.98 77.26 86.73
  L 77.20 116.82
  Q 77.19 117.69 78.07 117.67
  L 80.76 117.62
  Q 81.59 117.60 81.60 116.76
  Q 81.67 106.96 81.38 97.34
  C 81.32 95.46 80.72 93.78 80.74 91.88
  Q 80.75 91.03 81.06 91.82
  Z"
/>
<path fill="#f5f5f5" d="
  M 84.44 26.43
  L 69.73 66.16
  A 0.67 0.67 0.0 0 1 69.12 66.60
  L 65.26 66.70
  A 0.67 0.67 0.0 0 1 64.62 65.80
  L 79.52 25.97
  A 0.67 0.67 0.0 0 1 80.14 25.54
  L 83.82 25.53
  A 0.67 0.67 0.0 0 1 84.44 26.43
  Z"
/>
<path fill="#f5f5f5" d="
  M 43.79 47.55
  L 57.65 54.13
  Q 58.59 54.57 58.62 55.62
  L 58.70 58.30
  A 0.60 0.60 0.0 0 1 57.83 58.86
  L 40.00 50.08
  Q 39.41 49.79 39.42 49.14
  L 39.48 45.69
  A 1.05 1.04 77.5 0 1 40.06 44.77
  L 57.63 36.12
  Q 58.66 35.62 58.66 36.77
  L 58.65 39.15
  Q 58.65 40.24 57.67 40.70
  L 43.79 47.24
  A 0.17 0.17 0.0 0 0 43.79 47.55
  Z"
/>
<path fill="#f5f5f5" d="
  M 105.01 47.20
  L 90.63 40.39
  A 0.35 0.35 0.0 0 1 90.43 40.07
  L 90.45 36.18
  A 0.35 0.35 0.0 0 1 90.95 35.87
  L 109.39 44.92
  A 0.35 0.35 0.0 0 1 109.59 45.24
  L 109.51 49.73
  A 0.35 0.35 0.0 0 1 109.32 50.03
  L 90.89 59.10
  A 0.35 0.35 0.0 0 1 90.39 58.79
  L 90.38 54.96
  A 0.35 0.35 0.0 0 1 90.58 54.65
  L 105.01 47.84
  A 0.35 0.35 0.0 0 0 105.01 47.20
  Z"
/>
<path fill="#f5f5f5" d="
  M 65.21 90.26
  L 59.00 90.27
  Q 58.48 90.27 58.48 89.75
  L 58.48 86.67
  Q 58.47 86.07 59.08 86.07
  L 70.06 86.09
  A 0.51 0.51 0.0 0 1 70.57 86.59
  Q 70.66 97.41 70.61 108.75
  Q 70.58 115.05 64.19 117.52
  Q 62.41 118.21 59.16 117.93
  C 54.04 117.50 50.65 113.80 50.62 108.60
  Q 50.62 108.37 50.84 108.37
  L 55.00 108.39
  Q 55.22 108.39 55.23 108.61
  Q 55.52 112.83 58.86 113.50
  C 63.60 114.45 65.70 112.14 65.74 107.90
  Q 65.81 99.11 65.94 91.01
  A 0.73 0.72 -89.6 0 0 65.21 90.26
  Z"
/>
<path fill="#f5f5f5" d="
  M 80.74 91.88
  C 80.72 93.78 81.32 95.46 81.38 97.34
  Q 81.67 106.96 81.60 116.76
  Q 81.59 117.60 80.76 117.62
  L 78.07 117.67
  Q 77.19 117.69 77.20 116.82
  L 77.26 86.73
  Q 77.27 85.98 78.02 85.99
  L 82.50 86.07
  Q 83.11 86.08 83.28 86.66
  L 86.97 99.23
  Q 87.37 100.58 87.76 99.22
  L 91.37 86.74
  A 0.97 0.97 0.0 0 1 92.29 86.04
  L 96.74 86.02
  A 0.72 0.71 89.6 0 1 97.46 86.74
  L 97.46 116.82
  Q 97.46 117.60 96.68 117.62
  L 93.77 117.66
  Q 93.04 117.68 93.03 116.95
  Q 92.77 103.51 93.93 90.96
  Q 94.13 88.80 93.49 90.87
  Q 91.59 97.05 89.99 102.94
  A 1.32 1.32 0.0 0 1 88.90 103.90
  Q 87.22 104.14 85.63 103.83
  Q 84.90 103.69 84.71 102.98
  Q 83.17 97.17 81.06 91.82
  Q 80.75 91.03 80.74 91.88
  Z"
/>
</svg>
